<?xml version="1.0" encoding="UTF-8"?>
<svg xmlns="http://www.w3.org/2000/svg" xmlns:xlink="http://www.w3.org/1999/xlink" width="568px" height="925px" viewBox="0 0 568 924" version="1.1">
<defs>
<linearGradient id="linear0" gradientUnits="userSpaceOnUse" x1="230.143" y1="-17.2719" x2="448.342" y2="802.227" gradientTransform="matrix(0.666667,0,0,0.666159,0,190.873239)">
<stop offset="0" style="stop-color:rgb(73.72549%,16.470588%,74.901961%);stop-opacity:0.321569;"/>
<stop offset="1" style="stop-color:rgb(26.666667%,34.509804%,81.176471%);stop-opacity:0;"/>
</linearGradient>
</defs>
<g id="surface1">
<path style=" stroke:none;fill-rule:nonzero;fill:rgb(30.196078%,37.254902%,80.392157%);fill-opacity:0.321569;" d="M 23.046875 214.785156 C 23.046875 201.910156 33.492188 191.46875 46.378906 191.46875 L 573.964844 191.46875 C 586.851562 191.46875 597.296875 201.910156 597.296875 214.785156 L 597.296875 682.066406 C 597.296875 694.941406 586.851562 705.382812 573.964844 705.382812 L 46.378906 705.382812 C 33.492188 705.382812 23.046875 694.941406 23.046875 682.066406 Z M 23.046875 214.785156 "/>
<path style=" stroke:none;fill-rule:nonzero;fill:url(#linear0);" d="M 0.40625 214.785156 C 0.40625 201.910156 10.851562 191.46875 23.738281 191.46875 L 513.429688 191.46875 C 526.316406 191.46875 536.761719 201.910156 536.761719 214.785156 L 536.761719 710.03125 C 536.761719 722.910156 526.316406 733.347656 513.429688 733.347656 L 23.738281 733.347656 C 10.851562 733.347656 0.40625 722.910156 0.40625 710.03125 Z M 0.40625 214.785156 "/>
</g>
</svg>
