<svg width="34" height="34" viewBox="0 0 34 34" fill="none" xmlns="http://www.w3.org/2000/svg">
<path fill-rule="evenodd" clip-rule="evenodd" d="M3.80205 33.3292H29.7269C31.7723 33.3292 33.4304 31.7064 33.4304 29.7045V4.33129C33.4304 2.3294 31.7723 0.706543 29.7269 0.706543H3.80205C1.75664 0.706543 0.0985107 2.3294 0.0985107 4.33129V29.7045C0.0985107 31.7064 1.75664 33.3292 3.80205 33.3292Z" fill="white"/>
<path fill-rule="evenodd" clip-rule="evenodd" d="M16.7638 6.59675C10.6286 6.59675 5.65383 11.4843 5.65383 17.5148C5.65383 22.3375 8.83702 26.4295 13.2528 27.8733C13.8083 27.9736 14.0111 27.6365 14.0111 27.3472C14.0111 27.0879 14.0014 26.4015 13.9958 25.4906C10.905 26.1504 10.2529 24.027 10.2529 24.027C9.74809 22.766 9.01965 22.4303 9.01965 22.4303C8.01067 21.7527 9.09604 21.7664 9.09604 21.7664C10.2106 21.8435 10.7974 22.8916 10.7974 22.8916C11.789 24.5599 13.3979 24.0781 14.0312 23.7984C14.1319 23.0928 14.4194 22.6118 14.7368 22.3389C12.2695 22.0632 9.67587 21.127 9.67587 16.9437C9.67587 15.7516 10.1085 14.7772 10.8196 14.0137C10.705 13.7374 10.3238 12.6279 10.9279 11.1247C10.9279 11.1247 11.8612 10.8313 13.9833 12.2437C14.8701 12.0015 15.82 11.8807 16.7651 11.876C17.7089 11.8807 18.6595 12.0015 19.547 12.2437C21.6677 10.8313 22.5989 11.1247 22.5989 11.1247C23.2051 12.6279 22.8239 13.7374 22.7093 14.0137C23.4218 14.7772 23.8516 15.7516 23.8516 16.9437C23.8516 21.1373 21.2538 22.0605 18.7789 22.3307C19.1775 22.6678 19.5331 23.3337 19.5331 24.3524C19.5331 25.8119 19.5192 26.989 19.5192 27.3472C19.5192 27.6392 19.7192 27.979 20.283 27.8719C24.6947 26.4254 27.8751 22.3361 27.8751 17.5148C27.8751 11.4843 22.9003 6.59675 16.7638 6.59675Z" fill="#000F67"/>
</svg>
