<svg width="626" height="814" viewBox="0 0 626 814" fill="none" xmlns="http://www.w3.org/2000/svg">
<path d="M24.3308 35.896C24.3308 16.566 40.0008 0.895996 59.3308 0.895996H591C610.33 0.895996 626 16.566 626 35.896V737.351C626 756.681 610.33 772.351 591 772.351H59.3307C40.0008 772.351 24.3308 756.681 24.3308 737.351L24.3308 35.896Z" fill="#4D5FCD" fill-opacity="0.32"/>
<path d="M0.609619 35.896C0.609619 16.566 16.2797 0.895996 35.6096 0.895996H527.576C546.906 0.895996 562.576 16.566 562.576 35.896V779.333C562.576 798.663 546.906 814.333 527.576 814.333H35.6096C16.2796 814.333 0.609619 798.663 0.609619 779.333L0.609619 35.896Z" fill="url(#paint0_linear_497_5)" fill-opacity="0.32"/>
<defs>
<linearGradient id="paint0_linear_497_5" x1="160.938" y1="-17.2719" x2="453.026" y2="748.985" gradientUnits="userSpaceOnUse">
<stop stop-color="#BC2ABF"/>
<stop offset="1" stop-color="#4458CF" stop-opacity="0"/>
</linearGradient>
</defs>
</svg>
