<svg width="705" height="814" viewBox="0 0 705 814" fill="none" xmlns="http://www.w3.org/2000/svg">
<path d="M27.3273 35.896C27.3273 16.566 42.9973 0.895996 62.3273 0.895996H670C689.33 0.895996 705 16.566 705 35.896V737.351C705 756.681 689.33 772.351 670 772.351H62.3273C42.9973 772.351 27.3273 756.681 27.3273 737.351L27.3273 35.896Z" fill="#4D5FCD" fill-opacity="0.32"/>
<path d="M0.609619 35.896C0.609619 16.566 16.2797 0.895996 35.6096 0.895996H598.564C617.894 0.895996 633.564 16.566 633.564 35.896V779.333C633.564 798.663 617.894 814.333 598.564 814.333H35.6096C16.2796 814.333 0.609619 798.663 0.609619 779.333L0.609619 35.896Z" fill="url(#paint0_linear_497_5)" fill-opacity="0.32"/>
<defs>
<linearGradient id="paint0_linear_497_5" x1="181.191" y1="-17.2719" x2="447.679" y2="770.136" gradientUnits="userSpaceOnUse">
<stop stop-color="#BC2ABF"/>
<stop offset="1" stop-color="#4458CF" stop-opacity="0"/>
</linearGradient>
</defs>
</svg>
