<svg width="500" height="814" viewBox="0 0 852 814" fill="none" xmlns="http://www.w3.org/2000/svg">
<path d="M34.5698 35.896C34.5698 16.566 50.2399 0.895996 69.5698 0.895996H860.945C880.275 0.895996 895.945 16.566 895.945 35.896V737.351C895.945 756.681 880.275 772.351 860.945 772.351H69.5698C50.2399 772.351 34.5698 756.681 34.5698 737.351L34.5698 35.896Z" fill="#4D5FCD" fill-opacity="0.32"/>
<path d="M0.609619 35.896C0.609619 16.566 16.2797 0.895996 35.6096 0.895996H770.145C789.475 0.895996 805.145 16.566 805.145 35.896V779.333C805.145 798.663 789.475 814.333 770.145 814.333H35.6096C16.2797 814.333 0.609619 798.663 0.609619 779.333L0.609619 35.896Z" fill="url(#paint0_linear_497_5)" fill-opacity="0.32"/>
<defs>
<linearGradient id="paint0_linear_497_5" x1="230.143" y1="-17.2719" x2="448.342" y2="802.227" gradientUnits="userSpaceOnUse">
<stop stop-color="#BC2ABF"/>
<stop offset="1" stop-color="#4458CF" stop-opacity="0"/>
</linearGradient>
</defs>
</svg>
