<svg width="34" height="35" viewBox="0 0 34 35" fill="none" xmlns="http://www.w3.org/2000/svg">
<path d="M31.1355 0.320312H2.88156C1.43547 0.320312 0.268311 1.48747 0.268311 2.93357V31.7161C0.268311 33.1622 1.43547 34.3293 2.88156 34.3293H31.1355C32.5816 34.3293 33.7488 33.1622 33.7488 31.7161V2.93357C33.7488 1.48747 32.5816 0.320312 31.1355 0.320312ZM10.3396 29.1762H5.19385V13.115H10.3396V29.1762ZM7.77041 11.0009C6.14079 11.0009 4.81214 9.67958 4.81214 8.04997C4.81214 6.42035 6.13345 5.0917 7.77041 5.0917C9.40002 5.0917 10.7213 6.41301 10.7213 8.04997C10.7213 9.67224 9.40002 11.0009 7.77041 11.0009ZM28.9774 29.1762H23.7509L23.6041 19.7802C22.4736 15.9925 18.2308 19.7068 18.2308 19.7068V29.1762H13.0777V13.115H18.2308V15.163C26.9587 8.6519 28.9701 18.0405 28.9701 18.0405V29.1762H28.9774Z" fill="white"/>
</svg>
