<svg width="24" height="19" viewBox="0 0 24 19" fill="none" xmlns="http://www.w3.org/2000/svg">
<path fill-rule="evenodd" clip-rule="evenodd" d="M20.7598 4.56335C21.0476 10.9756 16.2662 18.125 7.80153 18.125C5.22713 18.125 2.83072 17.3699 0.813232 16.0764C3.23148 16.3614 5.64591 15.6909 7.56238 14.1883C5.56783 14.1517 3.88396 12.8337 3.3041 11.0226C4.01827 11.1591 4.72098 11.1192 5.36253 10.945C3.16978 10.5039 1.65681 8.52898 1.70595 6.41703C2.32075 6.75829 3.024 6.96358 3.77148 6.98651C1.74089 5.63024 1.16595 2.94936 2.36061 0.900212C4.6085 3.65862 7.96752 5.47354 11.7568 5.66409C11.0923 2.81177 13.2556 0.065918 16.198 0.065918C17.5095 0.065918 18.6943 0.61902 19.5253 1.50518C20.5638 1.30098 21.5395 0.921506 22.4202 0.39898C22.0801 1.46369 21.3572 2.3575 20.4159 2.92097C21.3381 2.81122 22.2166 2.56607 23.0345 2.20352C22.4235 3.11808 21.6504 3.9207 20.7598 4.56335Z" fill="#000F67"/>
</svg>
